<svg xmlns="http://www.w3.org/2000/svg" viewBox="0 0 24 24" id="Fullscreen">
  <path fill="none" d="M0 0h24v24H0Z"></path>
  <path fill="#f0f0f0" d="M3.3 21.6a.9.9 0 0 1-.9-.9v-5.4a.9.9 0 0 1 .9-.9.9.9 0 0 1 .9.9v3.227l5.2-5.2a.9.9 0 0 1 1.273 0 .9.9 0 0 1 0 1.273l-5.2 5.2H8.7a.9.9 0 0 1 .9.9.9.9 0 0 1-.9.9Zm9.936-10.927a.9.9 0 0 1 0-1.273l5.2-5.2h-3.227a.9.9 0 0 1-.9-.9.9.9 0 0 1 .9-.9h5.4a.9.9 0 0 1 .9.9v5.4a.9.9 0 0 1-.9.9.9.9 0 0 1-.9-.9V5.473l-5.2 5.2a.9.9 0 0 1-.636.264.9.9 0 0 1-.637-.264Z" class="color525863 svgShape"></path>
</svg>
