<svg xmlns="http://www.w3.org/2000/svg" width="32" height="32" id="reload">
  <path d="M16 0A16 16 0 0 0 0 16a16 16 0 0 0 16 16 16 16 0 0 0 16-16A16 16 0 0 0 16 0zm.354 9.008A7.004 7.004 0 0 1 21 11.123v-.617a.5.5 0 0 1 .492-.508.5.5 0 0 1 .508.508v2a.5.5 0 0 1-.5.5h-2a.5.5 0 1 1 0-1h.975a5.993 5.993 0 0 0-7.088-1.41 5.992 5.992 0 0 0-3.07 7.32 5.994 5.994 0 0 0 6.882 3.959 5.992 5.992 0 0 0 4.783-6.336.5.5 0 1 1 .998-.074 7.006 7.006 0 0 1-5.582 7.392 7.006 7.006 0 0 1-8.029-4.619 7.005 7.005 0 0 1 6.047-9.215 6.99 6.99 0 0 1 .938-.013v-.002z"></path>
</svg>
